<svg id="Capa_1" enable-background="new 0 0 512 512" height="512" viewBox="0 0 512 512" width="512" xmlns="http://www.w3.org/2000/svg"><g>
<path style="fill:white" d="m225 302c76.66 0 148.732-29.854 202.939-84.061s84.061-126.279 84.061-202.939c0-8.284-6.716-15-15-15s-15 6.716-15 15c0 141.71-115.29 257-257 257-8.284 0-15 6.716-15 15s6.716 15 15 15z"/>
<path style="fill:white" d="m467.606 311.394c-5.857-5.857-15.355-5.857-21.213 0s-5.858 15.355 0 21.213l14.394 14.393h-295.787v-295.787l14.394 14.394c2.928 2.928 6.767 4.393 10.606 4.393s7.678-1.465 10.606-4.394c5.858-5.857 5.858-15.355 0-21.213l-40-40c-5.857-5.857-15.355-5.857-21.213 0l-40 40c-5.858 5.857-5.858 15.355 0 21.213 5.857 5.857 15.355 5.857 21.213 0l14.394-14.393v295.787h-83.787l14.393-14.394c5.858-5.857 5.858-15.355 0-21.213-5.857-5.857-15.355-5.857-21.213 0l-40 40c-5.858 5.857-5.858 15.355 0 21.213l40 40c2.929 2.929 6.768 4.394 10.607 4.394s7.678-1.465 10.606-4.394c5.858-5.857 5.858-15.355 0-21.213l-14.393-14.393h83.787v83.787l-14.394-14.394c-5.857-5.857-15.355-5.857-21.213 0s-5.858 15.355 0 21.213l40 40c2.929 2.929 6.768 4.394 10.607 4.394s7.678-1.465 10.606-4.394l40-40c5.858-5.857 5.858-15.355 0-21.213-5.857-5.857-15.355-5.857-21.213 0l-14.393 14.394v-83.787h295.787l-14.393 14.394c-5.858 5.857-5.858 15.355 0 21.213 2.928 2.928 6.767 4.393 10.606 4.393s7.678-1.465 10.606-4.394l40-40c5.858-5.857 5.858-15.355 0-21.213z"/></g></svg>